<?xml version="1.0" standalone="no"?>
<!DOCTYPE svg PUBLIC "-//W3C//DTD SVG 20010904//EN"
 "http://www.w3.org/TR/2001/REC-SVG-20010904/DTD/svg10.dtd">
<svg version="1.0" xmlns="http://www.w3.org/2000/svg"
 width="939.000000pt" height="940.000000pt" viewBox="0 0 939.000000 940.000000"
 preserveAspectRatio="xMidYMid meet">

<g transform="translate(0.000000,940.000000) scale(0.100000,-0.100000)"
fill="#000000" stroke="none">
<path d="M0 4700 l0 -4700 1770 0 1770 0 0 34 c0 39 38 86 71 86 28 0 100 -21
118 -34 21 -16 81 -37 131 -46 25 -4 68 -15 95 -24 38 -12 92 -16 234 -16 163
0 191 2 247 22 35 12 64 25 64 29 0 3 14 12 30 19 17 7 30 16 30 21 0 5 7 9
15 9 8 0 15 4 15 8 0 5 10 13 23 19 22 10 72 51 129 105 16 16 34 28 39 28 6
0 9 7 5 15 -3 9 0 15 9 15 8 0 15 4 15 9 0 14 -70 -16 -97 -41 -12 -11 -54
-29 -95 -40 -122 -34 -116 -33 -111 -4 3 14 11 31 19 37 8 6 14 20 14 30 0 10
15 30 34 44 28 21 36 35 41 75 4 32 15 56 31 71 13 12 24 30 24 38 0 16 59 80
117 127 18 14 33 32 33 40 0 8 5 14 11 14 7 0 26 16 45 35 18 19 39 35 47 35
8 0 17 6 20 13 7 20 115 37 197 31 65 -4 126 -7 354 -12 54 -1 77 -24 64 -65
-5 -18 -11 -58 -12 -89 -2 -56 -27 -105 -47 -92 -5 3 -9 -2 -9 -10 0 -9 -14
-38 -30 -64 -17 -27 -30 -54 -30 -61 0 -6 -4 -11 -10 -11 -5 0 -10 -7 -10 -15
0 -8 -4 -15 -9 -15 -4 0 -23 -30 -41 -67 -18 -38 -36 -70 -40 -73 -9 -6 -54
-104 -73 -156 -8 -21 -18 -47 -22 -57 -7 -16 96 -17 2079 -17 l2086 0 0 4700
0 4700 -4695 0 -4695 0 0 -4700z m6137 3738 c-3 -7 -5 -2 -5 12 0 14 2 19 5
13 2 -7 2 -19 0 -25z m813 -198 c7 -22 17 -40 22 -40 5 0 6 -5 3 -10 -4 -6 10
-38 31 -71 20 -33 36 -73 36 -87 0 -15 4 -31 8 -37 7 -9 17 -59 23 -112 1 -12
8 -28 15 -35 17 -17 15 -31 -3 -24 -11 4 -15 -1 -15 -19 0 -13 -5 -27 -11 -30
-6 -5 -4 -12 8 -20 17 -13 17 -14 1 -20 -10 -4 -14 -13 -11 -22 5 -12 1 -14
-15 -8 -13 3 -22 2 -22 -4 0 -5 9 -13 20 -16 11 -3 20 -13 20 -21 0 -24 25
-15 44 16 19 33 36 32 36 -3 0 -33 -14 -49 -36 -41 -16 5 -16 4 -4 -5 8 -6 10
-11 4 -11 -7 0 -10 -13 -8 -30 2 -16 0 -30 -5 -30 -5 0 -16 -3 -25 -6 -11 -4
-16 0 -16 12 0 17 -1 17 -17 1 -13 -13 -14 -20 -5 -29 8 -8 4 -21 -21 -51 -20
-26 -27 -42 -19 -45 6 -2 12 -19 12 -37 0 -31 36 -116 53 -123 4 -2 7 -8 7
-13 0 -5 12 -28 27 -52 34 -53 98 -185 116 -239 4 -10 11 -18 17 -18 5 0 10
-8 10 -17 0 -9 6 -24 13 -32 7 -9 25 -54 41 -100 15 -47 34 -94 42 -105 8 -11
14 -34 14 -51 0 -16 6 -50 14 -75 21 -67 36 -137 36 -169 0 -16 7 -48 15 -71
8 -23 15 -55 15 -71 0 -15 7 -54 15 -85 23 -89 30 -386 14 -619 -16 -229 -14
-324 5 -417 11 -55 12 -75 1 -120 -14 -56 -42 -130 -54 -138 -4 -3 -21 -25
-38 -50 -18 -25 -48 -63 -67 -85 -20 -22 -36 -45 -36 -51 0 -6 -7 -17 -15 -24
-8 -7 -15 -27 -15 -46 0 -23 -8 -41 -25 -57 -24 -22 -25 -25 -11 -52 9 -16 26
-37 38 -47 l23 -18 -21 -6 c-17 -4 -23 -16 -28 -51 -10 -76 -7 -174 9 -248 9
-43 15 -125 15 -213 0 -154 -11 -227 -71 -457 -17 -66 -35 -142 -39 -170 -4
-27 -15 -77 -23 -110 -9 -33 -23 -96 -31 -140 -8 -44 -23 -114 -34 -155 -11
-41 -23 -100 -27 -130 -3 -30 -11 -58 -17 -61 -6 -4 -10 -20 -10 -35 0 -16 -6
-36 -13 -44 -7 -8 -16 -37 -21 -65 -9 -57 -7 -51 -23 -89 -19 -46 -31 -113
-24 -132 4 -11 3 -15 -5 -10 -6 3 -14 -3 -18 -16 -3 -12 -13 -28 -20 -36 -8
-7 -14 -31 -14 -53 0 -26 -9 -53 -25 -77 -14 -20 -25 -44 -25 -53 0 -9 -13
-41 -30 -72 -16 -31 -30 -68 -30 -81 0 -14 -4 -28 -10 -31 -5 -3 -10 -15 -10
-26 0 -11 -11 -36 -23 -57 -13 -20 -27 -50 -31 -66 -4 -15 -14 -35 -21 -43 -8
-8 -15 -24 -15 -36 0 -12 -13 -42 -30 -67 -16 -24 -34 -68 -40 -97 -6 -29 -16
-56 -22 -59 -7 -4 -8 -2 -4 4 4 7 3 12 -3 12 -5 0 -13 -25 -16 -55 -4 -30 -11
-58 -16 -61 -5 -3 -9 -15 -9 -26 0 -23 -17 -81 -31 -110 -5 -10 -9 -27 -9 -39
0 -11 -13 -46 -30 -76 -16 -30 -30 -63 -30 -74 0 -10 -6 -19 -14 -19 -7 0 -21
-11 -30 -25 -9 -14 -23 -25 -30 -25 -8 0 -17 -11 -20 -24 -8 -31 -25 -37 -75
-24 -44 11 -74 49 -97 120 -10 32 -9 38 2 38 8 0 14 7 14 15 0 20 -9 19 -72
-10 -67 -31 -128 -33 -168 -4 -16 12 -35 19 -43 16 -23 -9 -54 19 -68 61 -6
20 -15 42 -18 47 -4 6 -8 23 -9 39 -2 31 -13 53 -55 113 -26 37 -28 50 -32
152 -3 62 -1 121 5 130 5 10 22 21 38 24 16 3 43 20 60 36 30 31 65 40 77 21
13 -20 64 -11 81 15 14 21 23 25 63 24 76 -2 191 36 191 64 0 7 18 24 39 40
31 21 41 36 46 68 4 22 5 41 3 42 -1 1 -13 8 -25 15 -13 6 -38 12 -56 12 -19
0 -37 3 -41 7 -12 12 -45 10 -50 -4 -8 -20 -86 -18 -86 3 0 8 7 22 15 31 9 9
15 29 13 49 l-2 34 -23 -22 c-22 -20 -23 -21 -24 -2 0 18 -1 18 -8 1 -6 -17
-8 -16 -19 7 -6 14 -18 26 -26 26 -21 0 -30 19 -16 35 16 19 34 19 27 0 -10
-25 11 -26 30 -2 27 34 56 47 107 47 25 0 49 6 53 13 10 16 49 37 67 37 9 0
25 11 38 24 26 27 107 44 119 25 4 -6 12 -8 20 -4 7 5 26 9 43 11 17 1 32 7
34 13 6 18 20 13 28 -11 13 -41 39 -60 80 -56 31 2 42 9 52 31 8 16 11 39 8
53 -6 23 -11 24 -77 24 -54 0 -71 3 -76 16 -3 8 -17 20 -30 25 -16 6 -23 15
-19 24 4 10 -1 15 -15 15 -11 0 -18 -4 -14 -9 3 -6 -7 -9 -22 -8 -21 2 -28 -2
-27 -15 2 -20 -33 -20 -116 0 -25 6 -76 17 -115 25 -38 9 -82 18 -96 21 -26 6
-26 6 -23 93 4 94 24 159 54 168 9 3 37 24 61 46 26 24 51 39 63 37 28 -4 33
-28 5 -28 -17 0 -20 -3 -12 -11 7 -7 8 -21 0 -44 -12 -42 -4 -77 29 -112 l25
-28 -6 30 -7 30 23 -29 c18 -23 27 -27 52 -22 47 9 58 33 36 73 -11 19 -20 48
-22 66 -2 30 1 33 43 47 107 37 142 55 162 82 l21 30 -22 28 c-11 16 -21 38
-21 48 0 11 -22 40 -49 65 -53 49 -63 67 -66 112 -1 17 -7 55 -14 85 -10 47
-9 57 4 66 9 7 15 27 15 52 0 53 -8 72 -31 72 -11 0 -19 7 -19 16 0 13 3 14
14 5 26 -22 30 25 5 69 -17 30 -20 42 -11 53 12 14 11 71 -1 84 -11 10 -8 101
3 108 6 3 10 13 10 21 0 8 -4 12 -10 9 -6 -4 -10 9 -10 32 -1 21 -7 49 -15 63
-8 14 -14 36 -14 50 0 14 3 19 6 12 2 -6 9 -10 14 -6 11 7 12 61 0 68 -4 3
-11 25 -15 48 -4 24 -13 66 -21 93 -8 28 -21 77 -29 110 -8 33 -25 92 -36 130
-31 99 -42 159 -44 240 -3 72 -24 125 -51 125 -7 0 -16 12 -20 27 -3 14 -23
41 -43 60 -32 30 -34 33 -14 33 31 0 27 15 -6 29 -16 7 -36 25 -45 41 -10 16
-32 33 -51 40 -19 6 -36 17 -39 24 -3 7 -19 16 -36 19 -23 5 -31 12 -31 27 0
14 -11 25 -32 35 -18 7 -36 11 -40 9 -4 -3 -5 8 -2 23 6 31 -20 103 -37 103
-5 0 -8 4 -4 9 3 5 1 12 -5 16 -5 3 -10 16 -10 28 -1 12 -9 40 -20 62 -23 47
-24 59 -8 85 10 15 10 27 1 52 -7 18 -15 74 -19 123 -4 50 -10 95 -15 101 -5
6 -11 37 -15 70 -8 67 -37 134 -59 134 -8 0 -17 11 -21 25 -3 14 -10 25 -15
25 -5 0 -9 6 -9 13 0 8 -6 27 -14 43 -25 53 -27 103 -5 125 19 19 26 59 10 59
-5 0 -11 19 -14 43 -3 23 -9 67 -13 97 -3 30 -11 60 -16 67 -5 6 -6 32 -3 57
5 33 3 52 -7 69 -8 12 -17 49 -21 82 -3 33 -15 81 -27 108 -12 26 -19 55 -16
65 3 9 7 30 10 46 3 15 12 39 21 52 10 16 15 42 13 80 l-3 56 44 15 c31 10 46
12 54 4 14 -14 63 -14 89 0 31 17 119 1 125 -22 4 -15 8 -17 19 -8 17 14 18
66 2 72 -10 4 -9 8 2 16 22 16 28 13 32 -11 2 -17 9 -22 23 -20 11 2 21 8 23
13 2 4 17 6 33 2 22 -4 29 -2 29 11 0 9 5 16 11 16 7 0 9 9 5 24 -7 28 17 54
37 39 6 -5 27 -10 45 -11 28 -2 32 1 32 24 0 21 4 24 20 19 16 -5 20 -2 20 17
0 21 4 23 45 20 29 -3 45 -9 45 -18 0 -10 12 -12 53 -7 60 7 67 13 67 68 l1
40 19 -23 c24 -29 82 -40 117 -21 21 11 27 11 30 2 7 -19 27 -16 41 7 7 11 23
20 36 20 14 0 31 7 40 15 9 9 34 15 65 15 48 0 52 2 65 33 8 17 15 26 15 20 2
-23 48 -14 65 12 9 14 24 25 34 25 31 1 55 27 48 54 -5 22 0 27 51 53 53 25
55 28 31 31 -16 2 -28 8 -28 13 0 5 -9 9 -21 9 -12 0 -17 -4 -13 -11 4 -8 0
-8 -15 0 -17 9 -20 18 -15 39 9 35 9 35 32 21 28 -18 50 -5 57 35 4 19 13 37
21 40 8 3 14 12 14 20 0 7 9 16 20 19 11 3 20 1 20 -5 0 -5 5 -6 10 -3 15 10
12 35 -5 35 -16 0 -21 25 -6 34 9 6 7 45 -5 100 -5 19 -2 31 7 38 11 7 10 12
-8 25 -13 8 -23 22 -23 30 0 7 -8 25 -17 39 -12 19 -13 28 -5 33 18 11 -23 91
-47 91 -20 0 -31 26 -31 78 0 27 4 32 23 32 19 0 27 -8 37 -40z m-868 -80 l-8
-45 -8 32 c-8 37 1 80 15 66 5 -5 5 -28 1 -53z m1025 -180 c7 -18 8 -30 1 -30
-16 0 -33 23 -45 64 l-12 38 22 -20 c12 -12 27 -35 34 -52z m-547 -6 c0 -17 6
-28 20 -31 17 -5 20 -14 20 -60 0 -48 -2 -53 -15 -39 -8 8 -15 21 -15 29 0 8
-7 20 -15 27 -17 14 -21 100 -5 100 6 0 10 -12 10 -26z m387 -44 c-1 -36 -4
-47 -12 -40 -7 6 -11 27 -9 47 3 47 2 43 13 43 5 0 8 -22 8 -50z m-317 26 c0
-8 -4 -18 -10 -21 -5 -3 -10 3 -10 14 0 12 5 21 10 21 6 0 10 -6 10 -14z m157
-48 c-3 -8 -6 -5 -6 6 -1 11 2 17 5 13 3 -3 4 -12 1 -19z m327 0 c11 -44 6
-54 -13 -29 -10 14 -17 31 -14 38 8 20 20 16 27 -9z m-390 -7 c3 -5 7 -29 9
-55 5 -50 -7 -71 -18 -34 -3 13 -11 33 -17 45 -16 33 8 74 26 44z m256 -51 c0
-5 -2 -10 -4 -10 -3 0 -8 5 -11 10 -3 6 -1 10 4 10 6 0 11 -4 11 -10z m-64
-37 c-10 -10 -19 5 -10 18 6 11 8 11 12 0 2 -7 1 -15 -2 -18z m316 -11 c26
-12 50 -26 53 -32 3 -5 17 -10 31 -10 27 0 30 -6 11 -24 -15 -16 -43 -7 -78
25 -14 13 -37 30 -52 38 -15 8 -27 18 -27 24 0 5 3 7 8 5 4 -2 28 -13 54 -26z
m-127 -2 c3 -5 2 -10 -4 -10 -5 0 -13 5 -16 10 -3 6 -2 10 4 10 5 0 13 -4 16
-10z m-210 -17 c2 -8 -2 -16 -10 -19 -20 -8 -19 -44 1 -44 11 0 14 -5 10 -16
-3 -9 -6 -20 -6 -25 0 -5 -5 -9 -11 -9 -5 0 -7 5 -4 10 3 6 -3 10 -14 10 -15
0 -21 -6 -21 -23 0 -31 -9 -39 -25 -23 -16 15 -12 55 8 93 9 15 18 36 21 45 6
20 43 20 51 1z m-1768 -159 c-9 -9 -27 6 -27 22 0 13 2 13 16 -1 9 -9 14 -18
11 -21z m2030 -36 c-3 -8 -6 -5 -6 6 -1 11 2 17 5 13 3 -3 4 -12 1 -19z m-263
-43 c-4 -8 -8 -15 -10 -15 -2 0 -4 7 -4 15 0 8 4 15 10 15 5 0 7 -7 4 -15z
m210 -60 c23 -17 13 -34 -11 -19 -19 12 -29 34 -16 34 4 0 17 -7 27 -15z
m-1688 -134 c5 -5 32 -19 59 -30 48 -19 49 -20 18 -20 -18 -1 -33 4 -33 9 0 6
-13 10 -30 10 -16 0 -30 2 -30 4 0 2 -3 11 -6 20 -7 18 6 21 22 7z m180 -108
c-7 -8 -56 9 -51 18 3 4 17 3 30 -3 14 -6 23 -13 21 -15z m424 -13 c0 -5 -4
-10 -10 -10 -5 0 -10 5 -10 10 0 6 5 10 10 10 6 0 10 -4 10 -10z m1308 -349
c8 -5 12 -22 10 -46 l-3 -39 -27 42 c-16 23 -28 44 -28 47 0 8 34 6 48 -4z
m61 -127 c26 -44 27 -52 2 -30 -15 14 -36 66 -26 66 2 0 12 -16 24 -36z
m-2110 -2351 c-2 -38 -9 -55 -33 -80 -16 -18 -34 -33 -39 -33 -4 0 -23 -11
-41 -25 -35 -27 -62 -32 -68 -14 -2 7 -17 13 -33 15 -17 2 -50 6 -75 10 l-45
7 65 17 c96 24 130 43 180 99 30 34 52 51 68 51 22 0 23 -4 21 -47z m-279 17
c0 -5 6 -7 13 -4 8 3 19 -1 26 -9 14 -17 -5 -37 -38 -40 -12 -1 -21 -5 -21
-10 0 -4 -12 -7 -26 -5 -21 2 -28 9 -30 30 -3 34 13 46 34 24 11 -10 12 -16 4
-16 -7 0 -12 5 -12 11 0 5 -5 7 -11 3 -7 -4 -6 -11 4 -22 14 -13 17 -13 32 2
9 9 12 16 7 16 -6 0 -12 7 -16 15 -4 10 1 15 14 15 11 0 20 -4 20 -10z m-90
-40 c0 -5 -2 -10 -4 -10 -3 0 -8 5 -11 10 -3 6 -1 10 4 10 6 0 11 -4 11 -10z
m412 -142 c-23 -21 -50 -50 -61 -64 -15 -19 -25 -23 -45 -18 -26 6 -45 34 -23
34 7 0 20 8 29 18 32 32 53 49 93 77 36 24 40 25 44 9 2 -10 -13 -33 -37 -56z
m1032 -863 c4 -16 3 -23 -1 -15 -3 8 -13 20 -21 26 -9 6 -12 16 -7 23 10 17
22 3 29 -34z m-71 -572 c-7 -2 -21 -2 -30 0 -10 3 -4 5 12 5 17 0 24 -2 18 -5z
m-373 -598 c0 -12 -33 -55 -41 -55 -14 0 -10 18 8 40 17 19 33 26 33 15z"/>
<path d="M6956 7612 c-3 -5 1 -9 9 -9 8 0 15 4 15 9 0 4 -4 8 -9 8 -6 0 -12
-4 -15 -8z"/>
<path d="M6880 7464 c0 -8 5 -12 10 -9 6 3 10 10 10 16 0 5 -4 9 -10 9 -5 0
-10 -7 -10 -16z"/>
<path d="M7128 4991 c-7 -11 -17 -21 -22 -21 -4 0 -2 7 5 16 13 15 11 16 -21
11 -19 -4 -63 -11 -97 -16 -63 -9 -219 -56 -239 -73 -7 -5 -20 -10 -30 -12
-11 -3 -32 -10 -49 -17 -16 -7 -33 -12 -37 -11 -3 1 -12 -5 -18 -13 -7 -8 -19
-15 -26 -15 -22 0 -82 -43 -88 -62 -5 -21 4 -22 38 -7 14 7 32 9 41 5 20 -7
12 -16 -53 -60 -48 -33 -96 -89 -107 -126 -4 -14 -12 -30 -17 -37 -5 -6 -7
-35 -4 -65 2 -29 5 -56 5 -61 1 -4 12 -5 26 -1 14 3 69 1 123 -5 217 -25 284
-19 336 28 27 25 86 133 86 159 0 15 63 16 91 2 12 -7 19 -21 19 -39 0 -27 2
-29 28 -22 25 7 27 12 30 62 l3 55 -38 13 c-56 19 -306 27 -354 11 -39 -13
-69 -7 -33 6 10 4 25 12 33 18 23 18 257 98 276 94 18 -4 65 12 65 22 0 6 11
10 24 10 31 0 95 40 96 60 0 8 7 24 15 34 25 33 18 39 -42 31 -52 -6 -56 -6
-43 9 9 12 10 20 2 28 -7 7 -14 4 -24 -11z m-478 -335 c0 -3 -4 -8 -10 -11 -5
-3 -10 -1 -10 4 0 6 5 11 10 11 6 0 10 -2 10 -4z m89 -126 c12 -22 21 -51 20
-63 0 -22 0 -22 -17 3 -9 13 -29 36 -43 50 -28 27 -28 50 1 50 11 0 26 -16 39
-40z"/>
<path d="M7170 4744 c0 -17 22 -14 28 4 2 7 -3 12 -12 12 -9 0 -16 -7 -16 -16z"/>
<path d="M6426 4330 c4 -47 31 -103 45 -94 6 4 3 14 -8 26 -18 21 -18 21 7 8
14 -7 27 -16 30 -19 32 -38 177 -71 164 -37 -4 10 3 16 23 18 28 3 30 8 18 41
-6 14 -1 17 27 17 19 0 39 5 46 12 8 8 15 8 27 -2 21 -17 19 -3 -3 21 -11 11
-26 17 -34 14 -9 -4 -19 -2 -22 3 -3 6 -19 8 -35 6 -16 -3 -32 0 -36 7 -6 8
-10 8 -16 -2 -6 -11 -16 -11 -51 -2 -23 6 -68 10 -100 8 -32 -2 -58 1 -58 6 0
5 -6 9 -14 9 -10 0 -12 -11 -10 -40z"/>
<path d="M6842 4319 c2 -7 10 -15 17 -17 8 -3 12 1 9 9 -2 7 -10 15 -17 17 -8
3 -12 -1 -9 -9z"/>
<path d="M6768 4273 c12 -2 32 -2 45 0 12 2 2 4 -23 4 -25 0 -35 -2 -22 -4z"/>
<path d="M6460 4211 c0 -6 4 -13 10 -16 6 -3 7 1 4 9 -7 18 -14 21 -14 7z"/>
<path d="M6490 4161 c0 -5 5 -13 10 -16 6 -3 10 -2 10 4 0 5 -4 13 -10 16 -5
3 -10 2 -10 -4z"/>
<path d="M6350 3285 c0 -3 11 -18 25 -33 21 -22 24 -23 19 -7 -4 11 -11 26
-17 33 -10 12 -27 17 -27 7z"/>
<path d="M6400 3110 c0 -5 5 -10 11 -10 5 0 7 5 4 10 -3 6 -8 10 -11 10 -2 0
-4 -4 -4 -10z"/>
<path d="M5090 607 c0 -20 9 -25 31 -20 15 4 17 8 8 19 -15 18 -39 18 -39 1z"/>
<path d="M5050 550 c0 -11 7 -20 15 -20 8 0 15 9 15 20 0 11 -7 20 -15 20 -8
0 -15 -9 -15 -20z"/>
<path d="M5009 512 c-10 -2 -19 -12 -22 -23 -4 -17 -2 -19 16 -13 28 8 29 10
25 26 -1 7 -10 12 -19 10z"/>
<path d="M4920 425 c0 -25 1 -25 25 -9 14 9 25 20 25 25 0 5 -11 9 -25 9 -20
0 -25 -5 -25 -25z"/>
<path d="M4840 355 c-31 -32 -32 -35 -13 -35 13 0 24 8 28 20 5 15 12 19 25
15 13 -4 22 1 30 15 19 36 -31 25 -70 -15z"/>
</g>
</svg>
